<svg xmlns:xlink="http://www.w3.org/1999/xlink" version="1.1" xmlns="http://www.w3.org/2000/svg" x="0" y="0" viewBox="0 0 240 40" width="190" height="31"><g id="signet" class="fill-copper-500" fill="#B08770"><path d="M27.9,34.5c-5.1,2.8-11.3,2.8-16.3,0l4.6-4.6l2.5-2.5c-1.1-0.2-2.2-0.6-3.1-1.2 c-0.4-0.3-0.8-0.6-1.2-1c-0.4-0.4-0.7-0.8-1-1.2c-0.6-1-1-2-1.2-3.1c-0.1-0.7-0.1-1.4,0-2.2c0.2-1.1,0.6-2.2,1.2-3.1 c0.3-0.4,0.6-0.8,1-1.2c0.4-0.4,0.8-0.7,1.2-1c1-0.6,2-1,3.1-1.2c0.7-0.1,1.4-0.1,2.2,0c1.1,0.2,2.2,0.6,3.1,1.2l2.2-2.2l4.3-4.3 l2.2-2.2c-2.5-2.2-5.4-3.6-8.5-4.3c-2.9-0.7-5.9-0.7-8.8,0c-3.1,0.7-6,2.1-8.5,4.3c-0.4,0.3-0.8,0.7-1.1,1s-0.7,0.7-1,1.1 c-2.2,2.5-3.6,5.4-4.3,8.5c-0.7,2.9-0.7,5.9,0,8.8c0.7,3.1,2.1,6,4.3,8.5l2.2-2.2c-0.7-0.8-1.3-1.7-1.8-2.6 c-2.8-5.1-2.8-11.3,0-16.4c0.5-0.9,1.1-1.7,1.8-2.6c0.3-0.4,0.7-0.8,1-1.1c0.4-0.4,0.7-0.7,1.1-1c0.8-0.7,1.7-1.3,2.5-1.8 c5.1-2.8,11.3-2.8,16.3,0l-4.6,4.6c-2.3-0.8-4.8-0.8-7.2,0c-1,0.4-1.9,0.9-2.8,1.5c-0.4,0.3-0.8,0.6-1.2,1c-0.4,0.4-0.7,0.8-1,1.2 c-0.7,0.9-1.2,1.8-1.5,2.8c-0.8,2.3-0.8,4.9,0,7.2c0.4,1,0.9,1.9,1.5,2.8c0.3,0.4,0.6,0.8,1,1.2c0.4,0.4,0.8,0.7,1.2,1l-4.3,4.3 l-2.2,2.2c2.5,2.2,5.4,3.6,8.5,4.3c2.9,0.7,5.9,0.7,8.8,0c3.1-0.7,6-2.1,8.5-4.3l-2.2-2.2C29.7,33.4,28.8,34,27.9,34.5" fill="#B08770"></path><path d="M20.9,20.9c-0.6,0.6-1.6,0.6-2.2,0c-0.6-0.6-0.6-1.6,0-2.2c0.6-0.6,1.6-0.6,2.2,0 C21.5,19.3,21.5,20.3,20.9,20.9 M23.9,17.8c-0.2-0.5-0.5-0.9-0.9-1.3c-0.4-0.4-0.8-0.7-1.3-0.9c-1.2-0.6-2.7-0.6-3.9,0 c-0.5,0.2-0.9,0.5-1.3,0.9c-0.4,0.4-0.7,0.8-0.9,1.3c-0.6,1.2-0.6,2.7,0,3.9c0.2,0.5,0.5,0.9,0.9,1.3c0.4,0.4,0.8,0.7,1.3,0.9 c1.2,0.6,2.7,0.6,3.9,0c0.5-0.2,0.9-0.5,1.3-0.9c0.4-0.4,0.7-0.8,0.9-1.3C24.5,20.5,24.5,19.1,23.9,17.8" fill="#B08770"></path><path d="M29.8,23.4c0.8-2.3,0.8-4.9,0-7.2l4.6-4.6c2.8,5.1,2.8,11.3,0,16.4L29.8,23.4z M39.1,15.4 c-0.7-3.1-2.1-6-4.3-8.5l-2.2,2.2l-4.3,4.3l-2.2,2.2c0.6,1,1,2,1.2,3.1c0.1,0.7,0.1,1.4,0,2.2c-0.2,1.1-0.6,2.2-1.2,3.1l2.2,2.2 l4.3,4.3l2.2,2.2c2.2-2.5,3.6-5.4,4.3-8.5C39.7,21.3,39.7,18.3,39.1,15.4L39.1,15.4z" fill="#B08770"></path></g><g id="wordmark" class="delay-100 transition-all fill-black"><polygon points="51.9,9.6 55.4,9.6 55.4,19.4 64.7,9.6 68.9,9.6 60.8,18 69.3,29.2 65.1,29.2 58.4,20.4 55.4,23.5 55.4,29.2 51.9,29.2"></polygon><path d="M80.1,26.3c1,0,1.9-0.2,2.7-0.5c0.8-0.4,1.5-0.9,2.1-1.5c0.6-0.6,1-1.3,1.4-2.2 c0.3-0.8,0.5-1.7,0.5-2.7v-0.1c0-1-0.2-1.9-0.5-2.7c-0.3-0.9-0.8-1.6-1.4-2.2c-0.6-0.6-1.3-1.1-2.1-1.5c-0.8-0.4-1.7-0.6-2.7-0.6 c-1,0-1.9,0.2-2.7,0.5c-0.8,0.4-1.5,0.9-2.1,1.5c-0.6,0.6-1,1.4-1.4,2.2c-0.3,0.8-0.5,1.7-0.5,2.7v0.1c0,1,0.2,1.8,0.5,2.7 c0.3,0.8,0.8,1.6,1.4,2.2c0.6,0.6,1.3,1.1,2.1,1.5C78.2,26.1,79.1,26.3,80.1,26.3 M80,29.5c-1.5,0-2.9-0.3-4.1-0.8 c-1.2-0.5-2.3-1.3-3.2-2.2c-0.9-0.9-1.6-2-2.1-3.2c-0.5-1.2-0.8-2.5-0.8-3.9v-0.1c0-1.4,0.3-2.7,0.8-3.9c0.5-1.2,1.2-2.3,2.1-3.2 c0.9-0.9,2-1.7,3.2-2.2c1.2-0.5,2.6-0.8,4.1-0.8c1.5,0,2.9,0.3,4.1,0.8c1.2,0.5,2.3,1.3,3.2,2.2c0.9,0.9,1.6,2,2.1,3.2 c0.5,1.2,0.8,2.5,0.8,3.9v0.1c0,1.4-0.3,2.7-0.8,3.9c-0.5,1.2-1.2,2.3-2.1,3.2c-0.9,0.9-2,1.7-3.2,2.2C82.9,29.2,81.5,29.5,80,29.5"></path><path d="M101.1,29.5c-1.5,0-2.9-0.3-4.3-0.8c-1.4-0.5-2.7-1.3-3.8-2.4l2.1-2.5c0.9,0.8,1.9,1.4,2.9,1.9 c1,0.4,2.1,0.7,3.3,0.7c1.1,0,1.9-0.2,2.5-0.7c0.6-0.5,0.9-1,0.9-1.8v-0.1c0-0.4-0.1-0.7-0.2-0.9c-0.1-0.3-0.3-0.5-0.7-0.8 c-0.3-0.2-0.8-0.5-1.3-0.7c-0.6-0.2-1.3-0.4-2.2-0.6c-1-0.2-2-0.5-2.8-0.8c-0.8-0.3-1.5-0.7-2-1.1c-0.5-0.4-1-1-1.3-1.6 c-0.3-0.6-0.4-1.4-0.4-2.3V15c0-0.8,0.2-1.6,0.5-2.3s0.8-1.3,1.4-1.8c0.6-0.5,1.3-0.9,2.1-1.2c0.8-0.3,1.7-0.4,2.7-0.4 c1.4,0,2.7,0.2,3.9,0.6c1.1,0.4,2.2,1,3.2,1.8l-1.8,2.6c-0.9-0.7-1.8-1.2-2.7-1.5c-0.9-0.3-1.8-0.5-2.7-0.5c-1,0-1.8,0.2-2.3,0.7 c-0.6,0.4-0.8,1-0.8,1.6v0.1c0,0.4,0.1,0.7,0.2,1c0.1,0.3,0.4,0.5,0.7,0.8c0.4,0.2,0.8,0.5,1.4,0.7c0.6,0.2,1.4,0.4,2.3,0.6 c1,0.3,1.9,0.5,2.7,0.9c0.8,0.3,1.4,0.7,2,1.2c0.5,0.5,0.9,1,1.2,1.6c0.3,0.6,0.4,1.3,0.4,2.1v0.1c0,0.9-0.2,1.7-0.5,2.5 c-0.3,0.7-0.8,1.3-1.4,1.8c-0.6,0.5-1.3,0.9-2.2,1.1C103.1,29.3,102.2,29.5,101.1,29.5"></path><polygon points="112.2,9.6 115.8,9.6 121.8,18.9 127.7,9.6 131.4,9.6 131.4,29.2 127.9,29.2 127.9,15.1 121.8,24.4 121.7,24.4 115.5,15.2 115.5,29.2 112.2,29.2"></polygon><path d="M145.8,26.3c1,0,1.9-0.2,2.7-0.5c0.8-0.4,1.5-0.9,2.1-1.5c0.6-0.6,1-1.3,1.4-2.2 c0.3-0.8,0.5-1.7,0.5-2.7v-0.1c0-1-0.2-1.9-0.5-2.7c-0.3-0.9-0.8-1.6-1.4-2.2c-0.6-0.6-1.3-1.1-2.1-1.5c-0.8-0.4-1.7-0.6-2.7-0.6 c-1,0-1.9,0.2-2.7,0.5c-0.8,0.4-1.5,0.9-2.1,1.5c-0.6,0.6-1,1.4-1.4,2.2c-0.3,0.8-0.5,1.7-0.5,2.7v0.1c0,1,0.2,1.8,0.5,2.7 c0.3,0.8,0.8,1.6,1.4,2.2c0.6,0.6,1.3,1.1,2.1,1.5C143.9,26.1,144.8,26.3,145.8,26.3 M145.7,29.5c-1.5,0-2.9-0.3-4.1-0.8 c-1.2-0.5-2.3-1.3-3.2-2.2c-0.9-0.9-1.6-2-2.1-3.2c-0.5-1.2-0.8-2.5-0.8-3.9v-0.1c0-1.4,0.3-2.7,0.8-3.9c0.5-1.2,1.2-2.3,2.1-3.2 c0.9-0.9,2-1.7,3.2-2.2c1.2-0.5,2.6-0.8,4.1-0.8s2.9,0.3,4.1,0.8c1.2,0.5,2.3,1.3,3.2,2.2c0.9,0.9,1.6,2,2.1,3.2 c0.5,1.2,0.8,2.5,0.8,3.9v0.1c0,1.4-0.3,2.7-0.8,3.9c-0.5,1.2-1.2,2.3-2.1,3.2c-0.9,0.9-2,1.7-3.2,2.2 C148.6,29.2,147.2,29.5,145.7,29.5"></path><polygon points="160.1,9.6 163.3,9.6 173.8,23.1 173.8,9.6 177.1,9.6 177.1,29.2 174.3,29.2 163.5,15.3 163.5,29.2 160.1,29.2"></polygon><path d="M194,21.4l-3.4-7.8l-3.3,7.8H194z M189.1,9.5h3.2l8.6,19.7h-3.6l-2-4.7H186l-2,4.7h-3.5 L189.1,9.5z"></path><path d="M212.2,29.5c-1.3,0-2.4-0.2-3.4-0.5c-1-0.4-1.9-0.9-2.6-1.6c-0.7-0.7-1.3-1.6-1.7-2.7 c-0.4-1.1-0.6-2.3-0.6-3.7V9.6h3.4v11.1c0,1.8,0.4,3.2,1.3,4.2c0.9,0.9,2.1,1.4,3.6,1.4c1.5,0,2.7-0.5,3.6-1.4 c0.9-0.9,1.3-2.3,1.3-4.1V9.6h3.4v11.1c0,1.5-0.2,2.7-0.6,3.8c-0.4,1.1-1,2-1.7,2.8c-0.7,0.7-1.6,1.3-2.6,1.6 C214.7,29.3,213.5,29.5,212.2,29.5"></path><polygon points="230.2,12.8 224,12.8 224,9.6 239.8,9.6 239.8,12.8 233.6,12.8 233.6,29.2 230.2,29.2"></polygon></g></svg>